<?xml version="1.0" encoding="utf-8"?>
<!-- Generator: Adobe Illustrator 23.0.6, SVG Export Plug-In . SVG Version: 6.00 Build 0)  -->
<svg version="1.1" id="Calque_1" xmlns="http://www.w3.org/2000/svg" xmlns:xlink="http://www.w3.org/1999/xlink" x="0px" y="0px"
	 viewBox="0 0 512 512" style="enable-background:new 0 0 512 512;" xml:space="preserve">
<style type="text/css">
	.st0{fill:#FFECC2;}
	.st1{fill:#A3A09B;}
	.st2{fill:#FFFFFF;}
	.st3{fill:#CE9515;}
	.st4{fill:#F7BD31;}
	.st5{fill:#5B5757;}
</style>
<path class="st0" d="M501,256c0,135.3-109.7,245-245,245S11,391.3,11,256S120.7,11,256,11S501,120.7,501,256z"/>
<path class="st1" d="M286,339.8c0,22.1-13.4,40-30,40s-30-17.9-30-40s13.4-40,30-40S286,317.7,286,339.8z"/>
<path class="st2" d="M286,339.8c0,16.4-7.4,30.5-18,36.7c-10.6-6.2-18-20.3-18-36.7s7.4-30.5,18-36.7
	C278.6,309.3,286,323.3,286,339.8z"/>
<path class="st3" d="M447,184.8c0,77.3-62.7,140-140,140H205c-77.3,0-140-62.7-140-140s62.7-140,140-140h102
	C384.3,44.8,447,107.4,447,184.8z M312,344.8H200c-54.5,0-101.7,31.1-124.8,76.6C120,470.3,184.4,501,256,501s136-30.7,180.8-79.7
	C413.7,375.9,366.5,344.8,312,344.8z"/>
<path class="st4" d="M307,324.8h-63c-77.3,0-140-62.7-140-140s62.7-140,140-140h63c77.3,0,140,62.7,140,140S384.3,324.8,307,324.8z
	 M256,501c71.6,0,136-30.7,180.8-79.7c-23.1-45.4-70.3-76.6-124.8-76.6h-72c-64.9,0-119.4,44.1-135.3,104
	C146.4,481.5,198.9,501,256,501z"/>
<path class="st2" d="M346,455c0,10.9-1.9,21.4-5.5,31c-26.3,9.7-54.8,14-84.5,14s-58.2-4.3-84.5-14c-3.6-9.7-5.5-20.1-5.5-31
	c0-49.7,40.3-90,90-90S346,405.3,346,455z"/>
<path class="st1" d="M322,269.8H190c-38.7,0-70-31.3-70-70v-30c0-38.7,31.3-70,70-70h132c38.7,0,70,31.3,70,70v30
	C392,238.4,360.7,269.8,322,269.8z M225,477.6c-21.1-4.7-36.4-23.1-36.5-44.7c0-0.1,0-0.3,0-0.4c0-19.1,6-36.8,16.1-51.4
	C181.3,397.4,166,424.4,166,455c0,10.9,1.9,21.4,5.5,31c26.3,9.7,54.8,15,84.5,15c29.7,0,58.1-5.3,84.5-15c1.4-3.7,2.5-7.5,3.4-11.4
	c-20.8,5.8-42.7,8.8-65.3,8.8C260.1,483.5,242.2,481.5,225,477.6z"/>
<path class="st2" d="M322,269.8H220c-38.7,0-70-31.3-70-70v-30c0-38.7,31.3-70,70-70h102c38.7,0,70,31.3,70,70v30
	C392,238.4,360.7,269.8,322,269.8z"/>
<path class="st5" d="M284.3,212.9c3.9,3.9,3.9,10.2,0,14.1c-15.6,15.6-41,15.6-56.6,0c-3.9-3.9-3.9-10.2,0-14.1
	c3.9-3.9,10.2-3.9,14.1,0c7.8,7.8,20.5,7.8,28.3,0c2-2,4.5-2.9,7.1-2.9S282.3,211,284.3,212.9z M226.2,151.7
	c-15.6-15.6-41-15.6-56.6,0c-3.9,3.9-3.9,10.2,0,14.1c3.9,3.9,10.2,3.9,14.1,0c7.8-7.8,20.5-7.8,28.3,0c2,2,4.5,2.9,7.1,2.9
	s5.1-1,7.1-2.9C230.1,161.9,230.1,155.6,226.2,151.7z M342.4,151.7c-15.6-15.6-41-15.6-56.6,0c-3.9,3.9-3.9,10.2,0,14.1
	c3.9,3.9,10.2,3.9,14.1,0c7.8-7.8,20.5-7.8,28.3,0c2,2,4.5,2.9,7.1,2.9s5.1-1,7.1-2.9C346.3,161.9,346.3,155.6,342.4,151.7z"/>
<path class="st5" d="M271,448v52.5c-5,0.3-10,0.5-15,0.5s-10-0.2-15-0.5V448c0-8.3,6.7-15,15-15S271,439.7,271,448z"/>
<path class="st5" d="M271,448v22c0,8.3-6.7,15-15,15s-15-6.7-15-15v-22c0-8.3,6.7-15,15-15S271,439.7,271,448z M256,421
	c9.9,0,18-8.1,18-18s-8.1-18-18-18s-18,8.1-18,18S246.1,421,256,421z"/>
</svg>
